<?xml version="1.0" standalone="no"?>
<!DOCTYPE svg PUBLIC "-//W3C//DTD SVG 20010904//EN"
 "http://www.w3.org/TR/2001/REC-SVG-20010904/DTD/svg10.dtd">
<svg version="1.0" xmlns="http://www.w3.org/2000/svg"
 width="50.000000pt" height="50.000000pt" viewBox="0 0 50.000000 50.000000"
 preserveAspectRatio="xMidYMid meet">

<g transform="translate(0.000000,50.000000) scale(0.100000,-0.100000)"
fill="#000000" stroke="none">
<path d="M0 282 l0 -198 65 -32 65 -32 59 30 59 29 67 -30 66 -30 59 32 60 32
0 198 c0 110 -3 199 -7 199 -3 0 -30 -13 -59 -30 l-53 -30 -65 31 -64 30 -61
-31 -61 -30 -60 30 c-33 16 -62 30 -65 30 -3 0 -5 -89 -5 -198z m75 146 l45
-22 0 -178 c0 -98 -2 -178 -5 -178 -2 0 -25 10 -50 22 l-45 22 0 178 c0 98 2
178 5 178 2 0 25 -10 50 -22z m165 -156 l0 -178 -45 -22 c-25 -12 -48 -22 -50
-22 -3 0 -5 80 -5 178 l0 178 43 21 c23 12 45 22 50 22 4 1 7 -79 7 -177z m83
154 l47 -19 0 -179 c0 -99 -3 -178 -8 -176 -4 2 -28 11 -55 22 l-47 19 0 179
c0 99 3 178 8 176 4 -1 28 -11 55 -22z m157 -154 l0 -178 -37 -19 c-21 -11
-41 -21 -45 -23 -5 -2 -8 77 -8 175 l0 179 43 21 c23 12 43 22 45 22 1 1 2
-79 2 -177z"/>
</g>
</svg>
